<svg width="24" height="24" viewBox="0 0 24 24" fill="none" xmlns="http://www.w3.org/2000/svg">
<g id="briefcase">
<path id="Vector" fill-rule="evenodd" clip-rule="evenodd" d="M8.05566 2.05546C8.57138 1.53973 9.27085 1.25 10.0002 1.25H14.0002C14.7295 1.25 15.429 1.53973 15.9447 2.05546C16.4605 2.57118 16.7502 3.27065 16.7502 4V5.25H19.0002C19.7295 5.25 20.429 5.53973 20.9447 6.05546C21.4605 6.57118 21.7502 7.27065 21.7502 8V13.2375C21.7505 13.249 21.7505 13.2605 21.7502 13.272V18C21.7502 18.7293 21.4605 19.4288 20.9447 19.9445C20.429 20.4603 19.7295 20.75 19.0002 20.75H5.0002C4.27085 20.75 3.57138 20.4603 3.05565 19.9445C2.53993 19.4288 2.2502 18.7293 2.2502 18V13.2719C2.24993 13.2605 2.24993 13.249 2.2502 13.2376V8C2.2502 7.27065 2.53993 6.57118 3.05565 6.05546C3.57138 5.53973 4.27085 5.25 5.0002 5.25H7.2502V4C7.2502 3.27065 7.53993 2.57118 8.05566 2.05546ZM8.7502 5.25H15.2502V4C15.2502 3.66848 15.1185 3.35054 14.8841 3.11612C14.6497 2.8817 14.3317 2.75 14.0002 2.75H10.0002C9.66868 2.75 9.35074 2.8817 9.11632 3.11612C8.88189 3.35054 8.7502 3.66848 8.7502 4V5.25ZM5.0002 6.75C4.66868 6.75 4.35074 6.8817 4.11631 7.11612C3.88189 7.35054 3.7502 7.66848 3.7502 8V12.7435C6.31385 13.7166 9.09345 14.25 12.0002 14.25C14.82 14.2534 17.6163 13.7424 20.2502 12.7434V8C20.2502 7.66848 20.1185 7.35054 19.8841 7.11612C19.6497 6.8817 19.3317 6.75 19.0002 6.75H5.0002ZM12.0002 15.75C14.8131 15.7533 17.603 15.2758 20.2502 14.3407L12.0002 15.75ZM20.2502 14.3407V18C20.2502 18.3315 20.1185 18.6495 19.8841 18.8839C19.6497 19.1183 19.3317 19.25 19.0002 19.25H5.0002C4.66868 19.25 4.35074 19.1183 4.11631 18.8839C3.88189 18.6495 3.7502 18.3315 3.7502 18V14.341C6.33158 15.2533 9.10833 15.7499 12.0002 15.75M11.2502 12C11.2502 11.5858 11.586 11.25 12.0002 11.25H12.0102C12.4244 11.25 12.7602 11.5858 12.7602 12C12.7602 12.4142 12.4244 12.75 12.0102 12.75H12.0002C11.586 12.75 11.2502 12.4142 11.2502 12Z" fill="#111827"/>
</g>
</svg>
